{"accessors" : [{"bufferView" : 0, "byteOffset" : 0, "componentType" : 5123, "count" : 64806, "type" : "SCALAR", "max" : [12091], "min" : [0]}, {"bufferView" : 1, "byteOffset" : 0, "componentType" : 5126, "count" : 12092, "type" : "VEC3", "max" : [0.04971715807914734, 0.056596893817186356, 0.07894400507211685], "min" : [-0.061180055141448975, -4.5109853630265206E-08, -0.08270865678787231], "name" : "POSITION"}, {"bufferView" : 1, "byteOffset" : 12, "componentType" : 5126, "count" : 12092, "type" : "VEC3", "max" : [0.9999085068702698, 0.9999906420707703, 0.9985803961753845], "min" : [-0.9999087452888489, -0.999029815196991, -0.999218761920929], "name" : "NORMAL"}, {"bufferView" : 1, "byteOffset" : 24, "componentType" : 5126, "count" : 12092, "type" : "VEC2", "max" : [0.985210120677948, 0.9999721646308899], "min" : [0.00011133404041174799, 0.0001118779182434082], "name" : "TEXCOORD_0"}], "asset" : {"generator" : "Aspose.3D 24.6.0", "version" : "2.0"}, "buffers" : [{"uri" : "buffer.bin", "byteLength" : 7487772}], "bufferViews" : [{"buffer" : 0, "byteOffset" : 0, "byteLength" : 129612, "target" : 34963}, {"buffer" : 0, "byteOffset" : 129616, "byteLength" : 386944, "byteStride" : 32, "target" : 34962}, {"buffer" : 0, "byteOffset" : 516564, "byteLength" : 2194036}, {"buffer" : 0, "byteOffset" : 2710604, "byteLength" : 629444}, {"buffer" : 0, "byteOffset" : 3340052, "byteLength" : 4147717}], "images" : [{"mimeType" : "image/png", "bufferView" : 2}, {"mimeType" : "image/png", "bufferView" : 3}, {"mimeType" : "image/png", "bufferView" : 4}], "materials" : [{"name" : "Texture", "pbrMetallicRoughness" : {"baseColorFactor" : [1, 1, 1, 1], "baseColorTexture" : {"index" : 2, "texCoord" : 0}, "metallicFactor" : 0, "roughnessFactor" : 0.8999999761581421}, "normalTexture" : {"index" : 0, "texCoord" : 0, "scale" : 1}, "occlusionTexture" : {"index" : 1, "texCoord" : 0, "strength" : 0}, "emissiveFactor" : [0, 0, 0], "alphaMode" : "OPAQUE", "doubleSided" : false}], "meshes" : [{"primitives" : [{"attributes" : {"POSITION" : 1, "NORMAL" : 2, "TEXCOORD_0" : 3}, "indices" : 0, "material" : 0, "mode" : 4}], "name" : "Mesh"}], "nodes" : [{"mesh" : 0, "name" : "ObjectCapture"}], "samplers" : [{"magFilter" : 9729, "minFilter" : 9729, "wrapS" : 10497, "wrapT" : 10497}, {"magFilter" : 9729, "minFilter" : 9729, "wrapS" : 10497, "wrapT" : 10497}, {"magFilter" : 9729, "minFilter" : 9729, "wrapS" : 10497, "wrapT" : 10497}], "scene" : 0, "scenes" : [{"nodes" : [0]}], "textures" : [{"sampler" : 0, "source" : 0, "name" : "normal_texture"}, {"sampler" : 1, "source" : 1, "name" : "occlusion_texture"}, {"sampler" : 2, "source" : 2, "name" : "diffuseColor_texture"}]}